<svg xmlns="http://www.w3.org/2000/svg" viewBox="0 0 60 40"><rect width="60" height="40" fill="#b22234"/><g fill="#fff"><rect y="3.08" width="60" height="3.08"/><rect y="9.23" width="60" height="3.08"/><rect y="15.38" width="60" height="3.08"/><rect y="21.54" width="60" height="3.08"/><rect y="27.69" width="60" height="3.08"/><rect y="33.85" width="60" height="3.08"/></g><rect width="24" height="17.69" fill="#3c3b6e"/><g fill="#fff"><g id="s"><polygon points="2.4,2.4 2.93,3.68 4.27,3.68 3.18,4.48 3.61,5.76 2.4,4.96 1.19,5.76 1.62,4.48 0.53,3.68 1.87,3.68"/></g><use href="#s" x="4.8"/><use href="#s" x="9.6"/><use href="#s" x="14.4"/><use href="#s" x="19.2"/><use href="#s" y="3.54"/><use href="#s" x="4.8" y="3.54"/><use href="#s" x="9.6" y="3.54"/><use href="#s" x="14.4" y="3.54"/><use href="#s" x="19.2" y="3.54"/><use href="#s" y="7.08"/><use href="#s" x="4.8" y="7.08"/><use href="#s" x="9.6" y="7.08"/><use href="#s" x="14.4" y="7.08"/><use href="#s" x="19.2" y="7.08"/><use href="#s" y="10.62"/><use href="#s" x="4.8" y="10.62"/><use href="#s" x="9.6" y="10.62"/><use href="#s" x="14.4" y="10.62"/><use href="#s" x="19.2" y="10.62"/><use href="#s" y="14.16"/><use href="#s" x="4.8" y="14.16"/><use href="#s" x="9.6" y="14.16"/><use href="#s" x="14.4" y="14.16"/><use href="#s" x="19.2" y="14.16"/></g></svg> 